<svg width="26" height="26" viewBox="0 0 26 26" fill="none" xmlns="http://www.w3.org/2000/svg">
<rect x="3.25" y="3.25" width="19.5" height="19.5" rx="2.16667" fill="#8089D9"/>
<path fill-rule="evenodd" clip-rule="evenodd" d="M18.3976 8.31535C18.7412 8.60397 18.7858 9.11649 18.4971 9.46008L11.6721 17.5851C11.5209 17.7652 11.299 17.8709 11.0639 17.8749C10.8287 17.8789 10.6034 17.7808 10.4461 17.606L7.52108 14.356C7.2209 14.0225 7.24793 13.5087 7.58147 13.2086C7.91501 12.9084 8.42875 12.9354 8.72893 13.269L11.0289 15.8244L17.2529 8.41489C17.5415 8.0713 18.054 8.02673 18.3976 8.31535Z" fill="white"/>
<path fill-rule="evenodd" clip-rule="evenodd" d="M5.6875 4.0625C4.79004 4.0625 4.0625 4.79004 4.0625 5.6875V20.3125C4.0625 21.21 4.79004 21.9375 5.6875 21.9375H20.3125C21.21 21.9375 21.9375 21.21 21.9375 20.3125V5.6875C21.9375 4.79004 21.21 4.0625 20.3125 4.0625H5.6875ZM2.4375 5.6875C2.4375 3.89257 3.89257 2.4375 5.6875 2.4375H20.3125C22.1074 2.4375 23.5625 3.89257 23.5625 5.6875V20.3125C23.5625 22.1074 22.1074 23.5625 20.3125 23.5625H5.6875C3.89257 23.5625 2.4375 22.1074 2.4375 20.3125V5.6875Z" fill="#8089D9"/>
</svg>
