<svg width="26" height="26" viewBox="0 0 26 26" fill="none" xmlns="http://www.w3.org/2000/svg">
<path fill-rule="evenodd" clip-rule="evenodd" d="M5.6875 4.0625C4.79004 4.0625 4.0625 4.79004 4.0625 5.6875V20.3125C4.0625 21.21 4.79004 21.9375 5.6875 21.9375H20.3125C21.21 21.9375 21.9375 21.21 21.9375 20.3125V5.6875C21.9375 4.79004 21.21 4.0625 20.3125 4.0625H5.6875ZM2.4375 5.6875C2.4375 3.89257 3.89257 2.4375 5.6875 2.4375H20.3125C22.1074 2.4375 23.5625 3.89257 23.5625 5.6875V20.3125C23.5625 22.1074 22.1074 23.5625 20.3125 23.5625H5.6875C3.89257 23.5625 2.4375 22.1074 2.4375 20.3125V5.6875Z" fill="#8089D9"/>
</svg>
