<svg width="35" height="35" viewBox="0 0 35 35" fill="none" xmlns="http://www.w3.org/2000/svg">
<path d="M30.375 10.0938C30.375 7.62573 28.3743 5.625 25.9062 5.625H10.0938C7.62573 5.625 5.625 7.62573 5.625 10.0938V16.2911C6.23868 15.7843 6.93368 15.3724 7.6875 15.078V10.0938C7.6875 8.76481 8.76481 7.6875 10.0938 7.6875H25.9062C27.2352 7.6875 28.3125 8.76481 28.3125 10.0938V25.9062C28.3125 26.1933 28.2622 26.4686 28.17 26.7239L20.1645 18.8843L19.9879 18.7241C19.1125 17.9884 17.9263 17.814 16.9035 18.2009C17.2597 18.7866 17.5386 19.4244 17.7259 20.1003C18.0685 20.0062 18.45 20.0921 18.7214 20.3579L26.7045 28.1769C26.4547 28.2647 26.1861 28.3125 25.9062 28.3125H19.3404L20.0452 29.0173C20.4274 29.3995 20.6541 29.8782 20.7254 30.375H25.9062C28.3743 30.375 30.375 28.3743 30.375 25.9062V10.0938ZM25.5683 13.5342C25.5683 11.8239 24.1819 10.4375 22.4717 10.4375C20.7614 10.4375 19.375 11.8239 19.375 13.5342C19.375 15.2444 20.7614 16.6308 22.4717 16.6308C24.1819 16.6308 25.5683 15.2444 25.5683 13.5342ZM21.4375 13.5342C21.4375 12.963 21.9005 12.5 22.4717 12.5C23.0428 12.5 23.5058 12.963 23.5058 13.5342C23.5058 14.1053 23.0428 14.5683 22.4717 14.5683C21.9005 14.5683 21.4375 14.1053 21.4375 13.5342ZM15.1813 26.0979C16.0824 25.023 16.625 23.6374 16.625 22.125C16.625 18.7077 13.8548 15.9375 10.4375 15.9375C7.02024 15.9375 4.25 18.7077 4.25 22.125C4.25 25.5423 7.02024 28.3125 10.4375 28.3125C11.5959 28.3125 12.6799 27.9942 13.6069 27.4403L17.6145 31.448C18.0173 31.8507 18.6702 31.8507 19.073 31.448C19.4757 31.0452 19.4757 30.3923 19.073 29.9895L15.1813 26.0979ZM10.4375 26.25C8.15933 26.25 6.3125 24.4032 6.3125 22.125C6.3125 19.8468 8.15933 18 10.4375 18C12.7157 18 14.5625 19.8468 14.5625 22.125C14.5625 24.4032 12.7157 26.25 10.4375 26.25Z" fill="#BBBBBB"/>
</svg>
