<svg width="40" height="40" viewBox="0 0 40 40" fill="none" xmlns="http://www.w3.org/2000/svg">
<path d="M11.4286 4.28572H8.92862C6.36444 4.28572 4.28577 6.3644 4.28577 8.92858V31.0714C4.28577 33.5154 6.17418 35.5184 8.57148 35.7008V23.2143C8.57148 21.4391 10.0106 20 11.7858 20H28.2143C29.9895 20 31.4286 21.4391 31.4286 23.2143V35.7008C33.8259 35.5184 35.7143 33.5154 35.7143 31.0714V12.5508C35.7143 11.3194 35.2252 10.1385 34.3545 9.26777L30.7323 5.64558C29.8616 4.77488 28.6807 4.28572 27.4493 4.28572H27.1429V12.5C27.1429 14.2752 25.7038 15.7143 23.9286 15.7143H14.6429C12.8677 15.7143 11.4286 14.2752 11.4286 12.5V4.28572ZM25.0001 4.28572H13.5715V12.5C13.5715 13.0917 14.0512 13.5714 14.6429 13.5714H23.9286C24.5204 13.5714 25.0001 13.0917 25.0001 12.5V4.28572ZM29.2858 35.7143V23.2143C29.2858 22.6226 28.8061 22.1429 28.2143 22.1429H11.7858C11.194 22.1429 10.7143 22.6226 10.7143 23.2143V35.7143H29.2858Z" fill="#52588B"/>
</svg>
