<svg width="32" height="32" viewBox="0 0 32 32" fill="none" xmlns="http://www.w3.org/2000/svg">
<path d="M20.9178 1.27747L30.7006 10.8341C30.7953 10.9263 30.8706 11.0369 30.9221 11.1592C30.9735 11.2815 31 11.413 31 11.5459C31 11.6788 30.9735 11.8103 30.9221 11.9326C30.8706 12.0549 30.7953 12.1655 30.7006 12.2577L20.9178 21.8143C20.8284 21.9033 20.7224 21.9736 20.606 22.0211C20.4896 22.0686 20.3651 22.0924 20.2395 22.0911C20.1094 22.0915 19.9806 22.0646 19.8613 22.012C19.6838 21.9368 19.5323 21.8105 19.4256 21.6487C19.3188 21.4869 19.2617 21.2969 19.2613 21.1025V16.1726C10.5219 16.5285 6.8436 21.4716 6.68708 21.6825C6.56255 21.8481 6.39066 21.9711 6.19468 22.0347C5.99871 22.0984 5.78811 22.0997 5.5914 22.0384C5.39519 21.9745 5.22396 21.8496 5.10215 21.6815C4.98034 21.5135 4.91419 21.3108 4.91313 21.1025C4.91313 10.5309 13.509 7.28825 19.2613 6.95871V1.98928C19.2617 1.79485 19.3188 1.60486 19.4256 1.44309C19.5323 1.28131 19.6838 1.15493 19.8613 1.07975C20.0369 1.00319 20.2312 0.981104 20.4193 1.01631C20.6074 1.05151 20.7809 1.14241 20.9178 1.27747ZM7.19578 2.3188C3.77395 2.3188 1 5.12204 1 8.58002V23.7388C1 27.1968 3.77395 30 7.19578 30H22.1961C25.6179 30 28.3919 27.1968 28.3919 23.7388V23.0797C28.3919 22.5337 27.9539 22.0911 27.4136 22.0911C26.8733 22.0911 26.4353 22.5337 26.4353 23.0797V23.7388C26.4353 26.1048 24.5374 28.0228 22.1961 28.0228H7.19578C4.85453 28.0228 2.95656 26.1048 2.95656 23.7388V8.58002C2.95656 6.21404 4.85453 4.29602 7.19578 4.29602H13.0655C13.6058 4.29602 14.0438 3.85341 14.0438 3.30741C14.0438 2.76141 13.6058 2.3188 13.0655 2.3188H7.19578Z" fill="#444873"/>
</svg>
