<svg width="20" height="20" viewBox="0 0 20 20" fill="none" xmlns="http://www.w3.org/2000/svg">
<path d="M16.8177 15H14.3132L17.735 9.00033C18.2805 8.04375 17.9568 6.82057 17.0118 6.26828L11.8788 3.26828C10.9339 2.716 9.72553 3.04375 9.17996 4.00033L4.24072 12.6606C3.80153 13.4307 3.9257 14.3735 4.4838 15H2.98785C2.44228 15 2 15.4477 2 16C2 16.5523 2.44228 17 2.98785 17H16.8177C17.3633 17 17.8056 16.5523 17.8056 16C17.8056 15.4477 17.3633 15 16.8177 15ZM10.891 5.00033L16.024 8.00033L12.0318 15H8.24346L5.95172 13.6606L10.891 5.00033Z" fill="#52588B"/>
</svg>
